<?xml version="1.0" encoding="utf-8"?>
<svg xmlns="http://www.w3.org/2000/svg" viewBox="-38.601 111.6455 438.1602 84.67" width="438.16px" height="84.67px" preserveAspectRatio="none"><defs><linearGradient id="gradient-1" x1="0%" y1="0%" x2="100%" y2="100%"><stop offset="0" stopcolor="{PRIMARY_LIGHT}"/><stop offset="1" stopcolor="{PRIMARY_MAIN}"/></linearGradient></defs><g id="object-0" transform="matrix(1, 0, 0, 1, 0, 1.4210854715202004e-14)"><path fill="url(#gradient-1)" d="M 113.749 126.636 L 113.749 111.646 L 69.739 111.646 C 69.739 111.646 67.019 111.646 67.019 111.646 L 50.619 111.646 L 25.049 168.926 C 24.399 170.546 22.789 171.516 20.949 171.516 L 7.469 171.516 C 5.739 171.516 4.129 170.546 3.369 168.926 L -22.201 111.646 L -38.601 111.646 L -9.911 175.936 C -7.001 182.296 -0.631 186.506 6.379 186.506 L 22.019 186.506 C 29.029 186.506 35.399 182.296 38.309 175.936 L 60.309 126.636 L 72.919 126.636 C 72.919 126.636 83.429 126.636 83.429 126.636 L 83.429 171.506 L 69.729 171.506 L 69.729 186.496 L 113.739 186.496 L 113.739 171.506 L 100.149 171.506 L 100.149 126.636 L 113.739 126.636 L 113.749 126.636 Z" style="stroke-width: 1; paint-order: fill;"/><g fill="url(#gradient-1)" transform="matrix(1, 0, 0, 1, -69.520859, -96.024467)"><path d="M467.03,257.5c1.29-3.88,2.05-8.09,2.05-12.4,0-21.14-17.15-37.43-38.29-37.43h-205.04c-21.25,0-38.4,16.29-38.4,37.43s17.15,37.43,38.4,37.43h42.23c8.28,0,14.99-6.71,14.99-14.99h-57.22c-2.5,0-5-.46-7.33-1.38-3.73-1.47-6.96-4.08-9.25-7.37-2.75-3.95-4.05-8.64-4.05-13.44,0-2.78.32-5.6,1.19-8.25.92-2.79,2.39-5.4,4.34-7.6,1.87-2.12,4.18-3.85,6.76-5.03,2.61-1.2,5.47-1.81,8.34-1.81,0,0,86.45-.11,86.45-.11v60.09h16.72v-60.09h33.46c-4.78,6.22-7.63,13.97-7.63,22.55,0,21.14,17.15,37.43,38.4,37.43h27.51c3.34,0,6.47,1.19,8.85,3.34l7.44,6.47h25.46l-28.37-24.81h-40.88c-11.43,0-20.71-9.49-20.71-22.44s9.28-22.44,20.71-22.44h37.65c11.43,0,20.6,9.49,20.6,22.44,0,4.64-1.19,8.84-3.24,12.4h18.88Z" style="paint-order: fill;"/><path d="M221.93,245.5h0c0,4.14,3.36,7.5,7.5,7.5h25.42v-14.99h-25.42c-4.14,0-7.5,3.36-7.5,7.5Z" style="paint-order: fill;"/></g></g></svg>