<?xml version="1.0" encoding="UTF-8"?>
<svg id="Layer_1" xmlns="http://www.w3.org/2000/svg" version="1.1" viewBox="0 0 500 500">
  <!-- Generator: Adobe Illustrator 29.8.1, SVG Export Plug-In . SVG Version: 2.1.1 Build 2)  -->
  <defs>
    <style>
      .st0 {
        fill: #403bf5;
      }
    </style>
  </defs>
  <path class="st0" d="M183.27,222.66v-14.99h-44.01s-2.72,0-2.72,0h-16.4l-25.57,57.28c-.65,1.62-2.26,2.59-4.1,2.59h-13.48c-1.73,0-3.34-.97-4.1-2.59l-25.57-57.28h-16.4l28.69,64.29c2.91,6.36,9.28,10.57,16.29,10.57h15.64c7.01,0,13.38-4.21,16.29-10.57l22-49.3h12.61s10.51,0,10.51,0v44.87h-13.7v14.99h44.01v-14.99h-13.59v-44.87h13.59Z"/>
  <g>
    <path class="st0" d="M467.03,257.5c1.29-3.88,2.05-8.09,2.05-12.4,0-21.14-17.15-37.43-38.29-37.43h-205.04c-21.25,0-38.4,16.29-38.4,37.43s17.15,37.43,38.4,37.43h42.23c8.28,0,14.99-6.71,14.99-14.99h-57.22c-2.5,0-5-.46-7.33-1.38-3.73-1.47-6.96-4.08-9.25-7.37-2.75-3.95-4.05-8.64-4.05-13.44,0-2.78.32-5.6,1.19-8.25.92-2.79,2.39-5.4,4.34-7.6,1.87-2.12,4.18-3.85,6.76-5.03,2.61-1.2,5.47-1.81,8.34-1.81,0,0,86.45-.11,86.45-.11v60.09h16.72v-60.09h33.46c-4.78,6.22-7.63,13.97-7.63,22.55,0,21.14,17.15,37.43,38.4,37.43h27.51c3.34,0,6.47,1.19,8.85,3.34l7.44,6.47h25.46l-28.37-24.81h-40.88c-11.43,0-20.71-9.49-20.71-22.44s9.28-22.44,20.71-22.44h37.65c11.43,0,20.6,9.49,20.6,22.44,0,4.64-1.19,8.84-3.24,12.4h18.88Z"/>
    <path class="st0" d="M221.93,245.5h0c0,4.14,3.36,7.5,7.5,7.5h25.42v-14.99h-25.42c-4.14,0-7.5,3.36-7.5,7.5Z"/>
  </g>
</svg>